<svg id="_x33_0" enable-background="new 0 0 64 64" height="512" viewBox="0 0 64 64" width="512" xmlns="http://www.w3.org/2000/svg" xmlns:xlink="http://www.w3.org/1999/xlink"><linearGradient id="SVGID_1_" gradientUnits="userSpaceOnUse" x1="32" x2="32" y1="63" y2="1"><stop offset="0" stop-color="#9f2fff"/><stop offset="1" stop-color="#0bb1d3"/></linearGradient><path d="m33.14 25.582-.088-.265 1.897-.633.088.265c.409 1.227 1.553 2.051 2.846 2.051h1.117v2h-1.117c-2.155 0-4.062-1.374-4.743-3.418zm28.328-1.205-.763 1.017c1.446 1.509 2.295 3.546 2.295 5.679 0 2.801-1.407 5.378-3.763 6.892l-10.237 6.581v1.974l3.275 2.62c2.697.586 4.725 2.989 4.725 5.86v8h-36.414l-4.086-4.086-1.086 1.086c-.645.645-1.502 1-2.414 1s-1.77-.355-2.414-1l-3.879-3.879c-1.101-1.1-1.707-2.564-1.707-4.121s.606-3.021 1.707-4.121l9.879-9.879c1.148-1.149 3.055-1.268 4.37-.37l2.337-2.337 1.414 1.414-2.293 2.293 1.586 1.586 5-5v-2.971c-1.238-.679-2-1.96-2-3.38 0-.224.017-.438.057-.659.14-.791.7-3.518 2.134-6.944-1.162-.957-1.955-2.344-2.143-3.914l-1.652-1.321c-1.523-1.218-2.396-3.034-2.396-4.984 0-3.032 2.158-5.665 5.131-6.259l.375-.075.639-.64c2.219-2.218 5.173-3.439 8.321-3.439h.113c3.081 0 6.074 1.271 8.213 3.489l.199.206c1.408-1.095 3.125-1.695 4.938-1.695 4.45 0 8.071 3.621 8.071 8.071v1.985c2.395 1.316 4 3.869 4 6.723 0 1.647-.544 3.28-1.532 4.598zm-32.468 4.858c0 .708.393 1.344 1.026 1.66l.974.487v6.618c0 2.757 2.243 5 5 5h7v2h-4v3.966c2.741-.161 5.41-.978 7.773-2.396l.227-.136v-9.969l4.415-2.943c.992-.662 1.585-1.769 1.585-2.961 0-.951-.37-1.845-1.042-2.518s-1.566-1.043-2.518-1.043h-1.118l-2.743-6.857c-.763-1.909-2.584-3.143-4.641-3.143h-1.938c0 3.309-2.691 6-6 6-.724 0-1.416-.136-2.06-.372-1.285 3.128-1.787 5.575-1.914 6.297-.019.104-.026.205-.026.31zm.794 28.145c1.189-3.403 3.635-6.213 6.914-7.853l.292-.145v-4.382h-1c-2.334 0-4.399-1.153-5.672-2.914l-2.593 2.593c.173.413.265.86.265 1.321 0 .912-.355 1.77-1 2.414l-2.092 2.092c1.24.68 2.092 1.983 2.092 3.494v.586zm-8.208-5.38-2.05-2.05c-.613-.613-1.427-.95-2.293-.95-1.788 0-3.243 1.455-3.243 3.243 0 .866.337 1.68.95 2.293l5.05 5.05 5-5v-.586c0-1.103-.897-2-2-2zm3.828-10 1.086 1.086 2.867-2.867c-.194-.579-.311-1.191-.347-1.825zm-7.414-2.586-.586.586 7.586 7.586.586-.586c.263-.263.414-.628.414-1s-.151-.737-.414-1l-5.586-5.586c-.526-.526-1.474-.526-2 0zm-2.914 18.086-1.55-1.55c-.991-.991-1.536-2.307-1.536-3.707 0-2.891 2.352-5.243 5.243-5.243 1.4 0 2.717.545 3.707 1.536l1.464 1.464h.172l1-1-7.586-7.586-7.879 7.879c-.723.723-1.121 1.685-1.121 2.707s.398 1.984 1.121 2.707l3.879 3.879c.526.526 1.474.526 2 0zm15.5 3.5-4.586-4.586-4.586 4.586zm14.414-6c0-.162.012-.322.024-.481l-4.65 3.1-.47-1.878c-.412-1.65-1.33-3.136-2.604-4.251-2.944 1.579-5.057 4.274-5.896 7.5l2.01 2.01h11.586zm6-4c-2.206 0-4 1.794-4 4v6h8v-6c0-2.206-1.794-4-4-4zm-3.081-2.785-.116.07c-2.52 1.511-5.351 2.41-8.266 2.646.898 1.015 1.613 2.186 2.056 3.472l4.733-3.155c.742-.923 1.75-1.624 2.908-1.982zm13.081-28.436c0-2.8-2.09-5.21-4.862-5.606l-1.279-.183.282-1.979 1.279.183c.196.028.389.068.58.11v-1.232c0-3.348-2.724-6.072-6.071-6.072-1.622 0-3.146.631-4.293 1.778l-1.929 1.929-1.414-1.414 1.234-1.234-.175-.181c-1.764-1.829-4.232-2.878-6.773-2.878h-.113c-2.613 0-5.065 1.013-6.905 2.853l-1.067 1.068-.97.194c-2.042.408-3.524 2.216-3.524 4.298 0 1.339.6 2.586 1.645 3.422l.493.394c.37-2.049 1.54-3.882 3.308-5.062l1.109 1.664c-1.6 1.067-2.555 2.852-2.555 4.774v.395c0 2.206 1.794 4 4 4s4-1.794 4-4c0-1.103-.897-2-2-2s-2 .897-2 2h-2c0-2.206 1.794-4 4-4 1.474 0 2.75.81 3.444 2h2.494c2.879 0 5.43 1.727 6.5 4.4l2.242 5.605c1.396.059 2.699.63 3.693 1.624 1.05 1.05 1.628 2.447 1.628 3.932 0 1.863-.926 3.592-2.476 4.625l-3.525 2.349v4.633l9.156-5.886c1.781-1.144 2.844-3.092 2.844-5.209 0-2.163-1.152-4.198-3.007-5.311l-1.508-.905 1.029-1.715 1.508.905c.044.027.083.06.126.088l.719-.958c.731-.974 1.133-2.181 1.133-3.398zm-50 11.221h8v-2h-8c-4.411 0-8-3.589-8-8 0-2.206 1.794-4 4-4s4 1.794 4 4c0 1.103-.897 2-2 2s-2-.897-2-2h-2c0 2.206 1.794 4 4 4s4-1.794 4-4c0-3.309-2.691-6-6-6s-6 2.691-6 6c0 5.514 4.486 10 10 10zm-5 12c1.654 0 3-1.346 3-3s-1.346-3-3-3h-1v2h1c.551 0 1 .449 1 1s-.449 1-1 1c-1.654 0-3-1.346-3-3s1.346-3 3-3h11v-2h-11c-2.757 0-5 2.243-5 5s2.243 5 5 5z" fill="url(#SVGID_1_)"/></svg>